<svg xmlns="http://www.w3.org/2000/svg" xmlns:xlink="http://www.w3.org/1999/xlink" width="27" height="49" version="1.1" viewBox="0 0 27 49"><title>iamuser</title><desc>Created with Sketch.</desc><g id="Asset-Dashboard" fill="none" fill-rule="evenodd" stroke="none" stroke-width="1" opacity=".8"><g id="Asset-Dashboard-AWS-Copy" fill-rule="nonzero" transform="translate(-256.000000, -467.000000)"><g id="Group-66" transform="translate(191.000000, -128.000000)"><g id="Group-48" transform="translate(20.000000, 0.000000)"><g id="Group-11" transform="translate(0.000000, 578.000000)"><g id="Page-1" transform="translate(0.000000, 0.500000)"><g id="iamuser" transform="translate(45.353659, 16.514648)"><polygon id="Shape" fill="#3C4929" points="4.816 17.132 1.835 14.389 .347 17.258 2.629 17.526"/><polygon id="Shape" fill="#4AA493" points="2.342 20.682 13.146 21.369 23.95 20.682 13.146 14.7"/><polygon id="Shape" fill="#4AA493" points="20.449 17.132 23.078 17.598 25.946 17.258 23.383 11.856"/><polygon id="Shape" fill="#7690C6" points="9.603 36.684 15.782 35.238 21.745 36.63 15.566 42.505"/><polygon id="Shape" fill="#516A9C" points="10.29 16.588 7.075 16.033 3.765 11.909 7.075 5.253 10.29 6.25"/><polygon id="Shape" fill="#263555" points="2.342 9.22 2.342 5.402 13.146 0 16.003 6.041 10.29 8.33 7.075 7.326 7.075 15.913 13.146 14.7 16.379 28.922 13.146 49 9.908 47.381 9.908 42.803 7.075 41.674 7.075 20.204 2.342 20.682 2.342 16.863 .347 17.258 .347 10.021"/><polygon id="Shape" fill="#3C5079" points="18.74 2.797 21.016 3.932 23.95 5.402 23.95 9.22 25.946 10.021 25.946 17.258 23.95 16.863 23.95 20.682 21.405 20.425 19.218 20.204 19.218 24.452 19.218 24.476 19.218 24.5 23.95 24.5 23.95 28.426 21.751 28.623 21.751 32.585 16.379 33.655 16.379 38.232 21.739 36.636 21.751 40.676 16.379 42.803 16.379 47.381 13.146 49 13.146 34.3 13.146 29.4 13.146 24.47 13.146 24.446 13.146 19.6 13.146 14.7 16.003 15.268 16.003 8.33 13.146 7.326 13.146 4.9 13.146 0"/><polygon id="Shape" fill="#3C4929" points="16.379 6.191 13.146 4.9 7.075 7.326 10.29 8.33"/><polygon id="Shape" fill="#516A9C" points="16.003 7.326 19.218 7.326 19.218 15.913 16.003 15.268"/><polygon id="Shape" fill="#1D2126" points="7.075 7.326 13.146 4.9 14.425 5.414 16.379 6.191 19.218 7.326 16.003 8.33 13.146 7.326 10.29 8.33"/></g></g></g></g></g></g></g></svg>