<svg xmlns="http://www.w3.org/2000/svg" xmlns:xlink="http://www.w3.org/1999/xlink" width="41" height="49" version="1.1" viewBox="0 0 41 49"><title>KMS</title><desc>Created with Sketch.</desc><g id="Asset-Dashboard" fill="none" fill-rule="evenodd" stroke="none" stroke-width="1" opacity=".8"><g id="Asset-Dashboard-AWS-Copy" fill-rule="nonzero" transform="translate(-505.000000, -467.000000)"><g id="Group-66" transform="translate(191.000000, -128.000000)"><g id="Group-48" transform="translate(20.000000, 0.000000)"><g id="Group-11" transform="translate(0.000000, 578.000000)"><g id="Group-56" transform="translate(256.000000, 0.000000)"><g id="Group-45" transform="translate(0.000000, 0.500000)"><g id="KMS" transform="translate(38.000000, 16.514648)"><polygon id="Shape" fill="#7690C6" points="8.925 15.505 4.521 14.84 4.521 8.441 10.471 10.092"/><polygon id="Shape" fill="#1D2126" points="9.228 16.328 .525 17.109 .525 10.436 4.521 8.441"/><polygon id="Shape" fill="#1D2126" points="31.914 15.505 36.318 14.84 36.318 8.441 30.363 10.092"/><polygon id="Shape" fill="#516A9C" points="31.605 16.328 40.308 17.109 40.308 10.436 36.318 8.441"/><polygon id="Shape" fill="#263555" points="12.011 4.69 7.455 13.982 7.455 13.982 .525 16.059 .525 21.992 8.552 39.223 20.417 48.51 28.659 38.208 28.659 9.398 20.417 .49"/><polygon id="Shape" fill="#3C5079" points="40.308 21.992 40.308 16.059 33.378 13.982 33.378 13.982 28.823 4.69 20.417 .49 20.417 10.092 20.417 38.908 20.417 48.51 32.282 39.223"/></g></g></g></g></g></g></g></g></svg>