<svg xmlns="http://www.w3.org/2000/svg" xmlns:xlink="http://www.w3.org/1999/xlink" width="41" height="49" version="1.1" viewBox="0 0 41 49"><title>elasticsearch</title><desc>Created with Sketch.</desc><g id="Asset-Dashboard" fill="none" fill-rule="evenodd" stroke="none" stroke-width="1" opacity=".8"><g id="elasticsearch" fill-rule="nonzero" transform="translate(0.410156, 0.000000)"><polygon id="Shape" fill="#263555" points=".018 38.993 2.586 40.31 3.625 40.068 3.82 21.767 2.586 21.708 .018 21.961"/><polygon id="Shape" fill="#3C5079" points="7.202 39.224 2.586 40.31 2.586 21.708 7.202 21.926"/><polygon id="Shape" fill="#263555" points="5 41.485 9.404 43.716 12.256 42.807 12.256 14.015 9.404 13.472 5 14.794"/><polygon id="Shape" fill="#3C5079" points="16.943 41.308 9.404 43.716 9.404 13.472 16.943 14.918"/><polygon id="Shape" fill="#263555" points="33.603 14.375 33.603 35.274 38.657 36.065 38.657 13.472"/><polygon id="Shape" fill="#1D2126" points="21.902 13.165 22.93 6.801 37.565 12.173 37.565 15.55 33.68 16.099"/><polygon id="Shape" fill="#516A9C" points="20.539 36.815 24.783 41.868 37.565 37.529 37.565 34.082 33.645 33.533"/><polygon id="Shape" fill="#263555" points="12.929 45.446 20.072 48.988 24.299 46.875 25.693 3.383 20.072 .579 12.929 4.15"/><path id="Shape" fill="#3C5079" d="M20.0722892,0.590361446 L20.0722892,49 L40.1445783,38.9638554 L40.1445783,10.626506 L20.0722892,0.590361446 Z M37.5646988,34.0815663 L26.0880723,37.5292771 L26.0880723,12.1437349 L37.5706024,15.5619277 L37.5646988,34.0815663 Z"/></g></g></svg>