<svg xmlns="http://www.w3.org/2000/svg" xmlns:xlink="http://www.w3.org/1999/xlink" width="41" height="50" version="1.1" viewBox="0 0 41 50"><title>EMR</title><desc>Created with Sketch.</desc><g id="Asset-Dashboard" fill="none" fill-rule="evenodd" stroke="none" stroke-width="1" opacity=".8"><g id="Asset-Dashboard-AWS-Copy" fill-rule="nonzero" transform="translate(-1013.000000, -210.000000)"><g id="Group-66" transform="translate(191.000000, 106.000000)"><g id="Group-48" transform="translate(20.000000, 84.000000)"><g id="Group-11"><g id="EMR" transform="translate(802.182927, 20.692308)"><polygon id="Shape" fill="#263555" points="10.535 24.488 8.199 38.483 2.074 39.881 .042 38.865 .042 24.488"/><polygon id="Shape" fill="#1D2126" points="40.604 19.558 20.317 20.998 .03 19.558 20.317 0"/><polygon id="Shape" fill="#3C5079" points="24.357 24.488 2.074 24.488 2.074 39.881 24.357 34.784"/><polygon id="Shape" fill="#263555" points="13.218 24.488 13.947 40.228 6.812 42.248 4.32 41.005 4.32 24.488"/><polygon id="Shape" fill="#3C5079" points="31.031 24.488 6.812 24.488 6.812 42.248 31.031 35.376"/><polygon id="Shape" fill="#263555" points="18.291 24.488 18.291 43.174 12.728 45.205 9.597 43.64 9.597 24.488"/><polygon id="Shape" fill="#3C5079" points="36.308 24.488 12.728 24.488 12.728 45.205 36.308 36.583"/><polygon id="Shape" fill="#263555" points="16.272 46.98 16.272 24.488 31.629 24.488 38.997 39.66 20.311 49"/><polygon id="Shape" fill="#3C5079" points="20.311 49 20.311 24.488 40.598 24.488 40.598 38.859"/><polygon id="Shape" fill="#3C5079" points="40.604 19.558 20.317 16.068 20.317 0 40.604 10.141"/><polygon id="Shape" fill="#263555" points=".03 19.558 20.317 16.068 20.317 0 .03 10.141"/></g></g></g></g></g></g></svg>