<svg xmlns="http://www.w3.org/2000/svg" xmlns:xlink="http://www.w3.org/1999/xlink" width="43" height="49" version="1.1" viewBox="0 0 43 49"><title>dynamodb</title><desc>Created with Sketch.</desc><g id="Asset-Dashboard" fill="none" fill-rule="evenodd" stroke="none" stroke-width="1" opacity=".8"><g id="Asset-Dashboard-AWS-Copy" fill-rule="nonzero" transform="translate(-248.000000, -596.000000)"><g id="dynamodb" transform="translate(247.979730, 596.259766)"><polygon id="Shape" fill="#7690C6" points="42.656 16.183 42.656 11.124 37.333 5.297 28.619 24.5 37.333 43.696 42.656 37.862 42.656 32.804 40.882 34.009 40.882 31.579 42.656 30.658 42.656 25.566 40.882 25.612 40.882 23.335 42.656 23.421 42.656 18.461 40.882 17.534 40.882 15.826"/><polygon id="Shape" fill="#516A9C" points="27.844 48.45 37.333 43.696 37.333 5.291 27.844 .55 17.084 24.904"/><polygon id="Shape" fill="#3C5079" points="14.534 48.45 27.844 48.45 27.844 .55 14.534 .55 7.661 24.904"/><polygon id="Shape" fill="#263555" points="14.534 48.45 4.96 43.696 1.947 24.904 4.96 5.291 14.508 .55"/><polygon id="Shape" fill="#1D2126" points="40.882 31.579 37.326 33.313 27.844 35.359 21.368 35.359 14.534 35.359 5.224 33.313 5.059 33.28 4.953 33.254 4.953 26.023 14.521 26.712 21.368 26.712 27.844 26.712 37.333 26.023 42.663 25.579 40.882 25.566 40.882 23.434 42.637 23.414 37.333 23.023 27.844 22.719 21.368 22.719 14.607 22.719 4.953 22.951 4.953 15.667 5.059 15.647 14.607 13.402 21.368 13.402 27.844 13.402 37.333 15.647 40.882 17.541 40.882 16.342 42.656 16.196 37.333 12.475 27.844 9.409 21.368 9.409 14.607 9.409 4.953 12.581 4.953 5.291 .298 11.124 .298 16.19 1.629 16.342 1.629 17.561 .298 18.355 .298 23.421 1.629 23.434 1.629 25.566 .298 25.586 .298 30.625 1.629 31.42 1.629 32.658 .285 32.81 .298 37.856 4.953 43.689 4.953 36.399 14.528 39.352 21.368 39.352 27.844 39.352 37.333 36.412 42.656 32.804 40.882 32.658"/></g></g></g></svg>