<svg xmlns="http://www.w3.org/2000/svg" xmlns:xlink="http://www.w3.org/1999/xlink" width="45" height="50" version="1.1" viewBox="0 0 45 50"><title>rdsdb</title><desc>Created with Sketch.</desc><g id="Asset-Dashboard" fill="none" fill-rule="evenodd" stroke="none" stroke-width="1" opacity=".8"><g id="Asset-Dashboard-AWS-Copy" fill-rule="nonzero" transform="translate(-1011.000000, -467.000000)"><g id="Group-66" transform="translate(191.000000, -128.000000)"><g id="Group-48" transform="translate(20.000000, 0.000000)"><g id="Group-11" transform="translate(0.000000, 578.000000)"><g id="Group-60" transform="translate(764.000000, 1.000000)"><g id="rdsdb" transform="translate(36.500000, 16.014648)"><polygon id="Shape" fill="#7690C6" points="43.556 10.828 38.111 4.846 30.434 24.5 38.111 44.141 43.556 38.172"/><polygon id="Shape" fill="#516A9C" points="28.583 49 38.111 44.141 38.111 4.846 28.583 0 17.273 24.5"/><polygon id="Shape" fill="#3C5079" points="14.972 49 28.583 49 28.583 0 14.972 0 6.806 24.5"/><polygon id="Shape" fill="#263555" points="5.444 44.134 14.972 49 14.972 0 5.444 4.846 1.232 24.5"/><polygon id="Shape" fill="#1D2126" points="0 38.172 5.444 44.134 5.444 4.846 0 10.828"/></g></g></g></g></g></g></g></svg>