<svg xmlns="http://www.w3.org/2000/svg" xmlns:xlink="http://www.w3.org/1999/xlink" width="45" height="50" version="1.1" viewBox="0 0 45 50"><title>redshift</title><desc>Created with Sketch.</desc><g id="Asset-Dashboard" fill="none" fill-rule="evenodd" stroke="none" stroke-width="1" opacity=".8"><g id="Asset-Dashboard-AWS-Copy" fill-rule="nonzero" transform="translate(-1138.000000, -210.000000)"><g id="Group-66" transform="translate(191.000000, -128.000000)"><g id="Group-48" transform="translate(20.000000, 0.000000)"><g id="Group-11"><g id="Group-63" transform="translate(891.000000, 322.000000)"><g id="redshift" transform="translate(35.934211, 16.692308)"><polygon id="Shape" fill="#516A9C" points="40.921 7.105 44.596 8.878 44.596 40.025 40.921 41.805 35.106 24.5"/><polygon id="Shape" fill="#263555" points="4.21 7.105 .542 8.878 .542 40.025 4.21 41.805 13.391 24.5"/><polygon id="Shape" fill="#263555" points="22.566 37.324 40.921 41.792 40.921 7.105 22.566 11.573"/><polygon id="Shape" fill="#516A9C" points="22.566 37.324 4.21 41.792 4.21 7.105 22.566 11.573"/><polygon id="Shape" fill="#516A9C" points="26.969 48.729 33.991 45.228 33.991 3.772 26.969 .271 20 23.314"/><polygon id="Shape" fill="#263555" points="18.162 48.729 11.148 45.228 11.148 3.772 18.162 .271 24.403 24.5"/><rect id="Rectangle-path" width="8.814" height="48.458" x="18.162" y=".271" fill="#3C5079"/></g></g></g></g></g></g></g></svg>