<svg xmlns="http://www.w3.org/2000/svg" xmlns:xlink="http://www.w3.org/1999/xlink" width="41" height="49" version="1.1" viewBox="0 0 41 49"><title>ELB</title><desc>Created with Sketch.</desc><g id="Asset-Dashboard" fill="none" fill-rule="evenodd" stroke="none" stroke-width="1" opacity=".8"><g id="Asset-Dashboard-AWS-Copy" fill-rule="nonzero" transform="translate(-886.000000, -467.000000)"><g id="ELB" transform="translate(886.083333, 467.014648)"><g id="Group"><polygon id="Shape" fill="#263555" points="2.526 9.432 .531 10.43 .531 38.57 2.526 39.568 10.43 24.5"/><polygon id="Shape" fill="#3C5079" points="7.175 38.477 2.526 39.568 2.526 9.432 7.175 10.494"/><polygon id="Shape" fill="#263555" points="4.725 8.33 7.175 7.111 12.973 24.5 7.175 41.889 4.725 40.67"/><polygon id="Shape" fill="#3C5079" points="12.973 40.25 7.175 41.889 7.175 7.111 12.973 8.756"/><polygon id="Shape" fill="#263555" points="9.905 5.74 12.973 4.206 32.13 24.5 12.973 44.788 9.905 43.26"/><polygon id="Shape" fill="#3C5079" points="33.688 37.123 12.973 44.788 12.973 4.206 33.688 11.777"/><polygon id="Shape" fill="#1D2126" points="31.004 20.714 27.137 20.965 16.444 20.061 20.411 .49"/><polygon id="Shape" fill="#263555" points="20.411 19.658 20.411 .49 16.444 2.473 16.444 20.061"/><polygon id="Shape" fill="#3C5079" points="31.004 20.714 31.004 5.787 20.411 .49 20.411 19.658"/><polygon id="Shape" fill="#516A9C" points="31.004 28.157 27.341 27.924 16.444 28.846 20.411 48.51"/><polygon id="Shape" fill="#263555" points="16.444 28.846 16.444 46.532 20.411 48.51 20.411 29.207"/><polygon id="Shape" fill="#3C5079" points="20.411 29.207 20.411 48.51 31.004 43.213 31.004 28.157"/><polygon id="Shape" fill="#516A9C" points="40.303 27.236 38.028 27.142 32.13 27.662 34.627 41.405"/><polygon id="Shape" fill="#3C5079" points="34.627 27.796 34.627 41.405 40.303 38.564 40.303 27.236"/><polygon id="Shape" fill="#1D2126" points="40.303 21.648 38.028 21.741 32.13 21.216 34.627 7.595"/><polygon id="Shape" fill="#3C5079" points="40.303 21.648 40.303 10.436 34.627 7.595 34.627 21.076"/><polygon id="Shape" fill="#263555" points="32.13 40.746 34.627 41.405 34.627 27.796 32.13 27.662"/><polygon id="Shape" fill="#263555" points="32.13 8.254 34.627 7.595 34.627 21.076 32.13 21.216"/></g></g></g></g></svg>