<svg xmlns="http://www.w3.org/2000/svg" xmlns:xlink="http://www.w3.org/1999/xlink" width="41" height="49" version="1.1" viewBox="0 0 41 49"><title>EC2</title><desc>Created with Sketch.</desc><g id="Asset-Dashboard" fill="none" fill-rule="evenodd" stroke="none" stroke-width="1" opacity=".8"><g id="Asset-Dashboard-AWS-Copy" fill-rule="nonzero" transform="translate(-249.000000, -211.000000)"><g id="Group-66" transform="translate(191.000000, 106.000000)"><g id="Group-48" transform="translate(20.000000, 84.000000)"><g id="Group-11"><g id="Page-1" transform="translate(0.000000, 3.500000)"><g id="EC2" transform="translate(38.083333, 17.192308)"><g id="Group"><polygon id="Shape" fill="#263555" points="2.526 9.432 .531 10.43 .531 38.57 2.526 39.568 10.599 25.229"/><polygon id="Shape" fill="#3C5079" points="7.175 38.477 2.526 39.568 2.526 9.432 7.175 10.494"/><polygon id="Shape" fill="#263555" points="4.725 8.33 7.175 7.111 18.813 25.766 7.175 41.889 4.725 40.67"/><polygon id="Shape" fill="#3C5079" points="12.973 40.25 7.175 41.889 7.175 7.111 12.973 8.756"/><polygon id="Shape" fill="#263555" points="9.905 5.74 12.973 4.206 30.141 27.808 12.973 44.794 9.905 43.26"/><polygon id="Shape" fill="#3C5079" points="20.411 42.076 12.973 44.794 12.973 4.206 20.411 6.93"/><polygon id="Shape" fill="#263555" points="16.444 2.473 20.411 .49 38.984 25.859 20.411 48.51 16.444 46.527"/><polygon id="Shape" fill="#3C5079" points="40.303 38.564 20.411 48.51 20.411 .49 40.303 10.436"/></g></g></g></g></g></g></g></g></svg>