<svg xmlns="http://www.w3.org/2000/svg" xmlns:xlink="http://www.w3.org/1999/xlink" width="47" height="49" version="1.1" viewBox="0 0 47 49"><title>ENI</title><desc>Created with Sketch.</desc><g id="Asset-Dashboard" fill="none" fill-rule="evenodd" stroke="none" stroke-width="1" opacity=".8"><g id="Asset-Dashboard-AWS-Copy" fill-rule="nonzero" transform="translate(-502.000000, -339.000000)"><g id="Group-66" transform="translate(191.000000, -128.000000)"><g id="Group-48" transform="translate(20.000000, 0.000000)"><g id="Group-11" transform="translate(0.000000, 449.000000)"><g id="Group-56" transform="translate(256.000000, 1.000000)"><g id="ENI" transform="translate(34.765625, 16.960099)"><circle id="Oval" cx="23.734" cy="25.457" r="23.298" fill="#263555"/><rect id="Rectangle-path" width="46.596" height="1.914" x=".436" y="23.543" fill="#9D5025"/><circle id="Oval" cx="23.734" cy="23.543" r="23.298" fill="#3C5079"/><polygon id="Shape" fill="#FFF" points="7.848 13.59 7.848 13.59 7.848 15.313 9.968 15.313 9.968 33.688 7.848 33.688 7.848 35.41 11.951 35.41 11.951 13.59 7.848 13.59 7.848 13.59"/><polygon id="Shape" fill="#FFF" points="39.621 15.971 39.621 15.971 13.804 15.971 13.804 30.388 16.323 30.388 16.323 33.289 27.31 33.289 27.31 30.388 31.276 30.388 31.276 33.289 36.046 33.289 36.046 30.388 39.621 30.388 39.621 15.971 39.621 15.971"/><polygon id="Shape" fill="#516A9C" points="16.583 18.092 16.583 18.092 36.444 18.092 36.444 28.137 16.583 28.137 16.583 18.092 16.583 18.092"/><polygon id="Shape" fill="#FFF" points="18.704 19.677 18.704 19.677 25.587 19.677 25.587 26.414 18.704 26.414 18.704 19.677 18.704 19.677"/><polygon id="Shape" fill="#FFF" points="27.708 19.677 27.708 19.677 34.591 19.677 34.591 26.414 27.708 26.414 27.708 19.677 27.708 19.677"/></g></g></g></g></g></g></g></svg>