<svg xmlns="http://www.w3.org/2000/svg" xmlns:xlink="http://www.w3.org/1999/xlink" width="41" height="49" version="1.1" viewBox="0 0 41 49"><title>lambda</title><desc>Created with Sketch.</desc><g id="Asset-Dashboard" fill="none" fill-rule="evenodd" stroke="none" stroke-width="1" opacity=".8"><g id="lambda" fill-rule="nonzero" transform="translate(0.410156, -0.167969)"><polygon id="Shape" fill="#263555" points=".531 38.57 3.063 39.836 7.537 24.523 3.063 9.164 .531 10.43"/><polygon id="Shape" fill="#3C5079" points="7.963 10.331 3.063 9.182 3.063 39.836 7.963 38.687"/><polygon id="Shape" fill="#263555" points="6.107 7.642 9.823 5.781 14.461 24.523 9.823 43.219 6.107 41.358"/><polygon id="Shape" fill="#3C5079" points="17.436 40.722 9.823 43.149 9.823 5.781 17.436 8.213"/><polygon id="Shape" fill="#263555" points="34.72 12.349 37.765 12.349 37.765 35.653 34.72 35.484"/><polygon id="Shape" fill="#1D2126" points="22.907 12.688 26.326 10.926 37.526 12.349 37.858 15.33 34.79 15.762"/><polygon id="Shape" fill="#516A9C" points="23.007 36.313 26.419 38.074 37.952 33.664 34.889 33.238"/><polygon id="Shape" fill="#263555" points="23.87 31.366 29.966 32.182 29.966 16.817 23.87 17.628"/><polygon id="Shape" fill="#263555" points="14.461 45.535 20.411 48.51 25.521 24.465 20.411 .49 14.461 3.465"/><path id="Shape" fill="#3C5079" d="M20.4166667,0.49 L20.4166667,48.51 L40.3083333,38.5641667 L40.3083333,10.4358333 L20.4166667,0.49 Z M37.765,33.6991667 L26.3608333,37.1233333 L26.3608333,11.8766667 L37.7591667,15.295 L37.765,33.6991667 Z"/><polygon id="Shape" fill="#3C5079" points="29.966 16.817 29.966 32.229 36.307 24.523"/></g></g></svg>