<svg xmlns="http://www.w3.org/2000/svg" xmlns:xlink="http://www.w3.org/1999/xlink" width="41" height="49" version="1.1" viewBox="0 0 41 49"><title>snapshot</title><desc>Created with Sketch.</desc><g id="Asset-Dashboard" fill="none" fill-rule="evenodd" stroke="none" stroke-width="1" opacity=".8"><g id="Asset-Dashboard-AWS-Copy" fill-rule="nonzero" transform="translate(-632.000000, -469.000000)"><g id="snapshot" transform="translate(632.454545, 469.014648)"><g id="Group"><rect id="Rectangle-path" width="21.501" height="5.687" x="9.317" y="7.135" fill="#8C3123"/><polygon id="Shape" fill="#263555" points="28.227 2.212 11.894 2.212 9.666 2.598 9.666 4.44 30.462 4.44 30.462 2.598"/><path id="Shape" fill="#263555" d="M20.0454545,9.91878788 L39.7271212,12.8216667 L39.7271212,14.5440909 C39.7271212,17.1054545 30.9145455,19.1693939 20.0454545,19.1693939 C9.17636364,19.1693939 0.386060606,17.0757576 0.386060606,14.5366667 L0.386060606,12.6954545 L20.0454545,9.91878788 Z"/><path id="Shape" fill="#263555" d="M20.0454545,22.3543939 C28.2640909,22.3543939 35.3022727,21.1739394 38.249697,19.4960606 L39.2148485,17.8627273 L39.6083333,16.3778788 L39.6083333,18.2190909 L33.1715152,45.6887879 C33.1715152,47.3963636 27.2989394,48.7698485 20.0528788,48.7698485 C12.8068182,48.7698485 6.94166667,47.3963636 6.94166667,45.6887879 L0.504848485,18.2190909 L0.504848485,16.4075758 L1.98969697,19.5480303 C4.96681818,21.2036364 11.9381818,22.3543939 20.0454545,22.3543939 Z"/><rect id="Rectangle-path" width="21.501" height="5.687" x="9.317" y="5.293" fill="#516A9C"/><polygon id="Shape" fill="#3C5079" points="28.227 .371 11.894 .371 9.666 2.598 30.462 2.598"/><path id="Shape" fill="#3C5079" d="M20.0454545,8.07757576 C30.9145455,8.07757576 39.7271212,10.1489394 39.7271212,12.6954545 C39.7271212,15.2419697 30.9293939,17.3207576 20.0454545,17.3207576 C9.16151515,17.3207576 0.371212121,15.2568182 0.371212121,12.6954545 C0.371212121,10.1340909 9.19863636,8.07757576 20.0454545,8.07757576 Z"/><path id="Shape" fill="#3C5079" d="M20.0454545,20.5131818 C30.1795455,20.5131818 38.5169697,18.7239394 39.6009091,16.4075758 L33.1640909,43.8772727 C33.1640909,45.5848485 27.2915152,46.9583333 20.0454545,46.9583333 C12.7993939,46.9583333 6.94909091,45.5848485 6.94909091,43.8772727 L0.512272727,16.4075758 C1.59621212,18.7239394 9.93363636,20.5131818 20.0454545,20.5131818 Z"/></g></g></g></g></svg>