<svg xmlns="http://www.w3.org/2000/svg" xmlns:xlink="http://www.w3.org/1999/xlink" width="61" height="64" version="1.1" viewBox="0 0 61 64"><title>appelb</title><desc>Created with Sketch.</desc><g id="Asset-Dashboard" fill="none" fill-rule="evenodd" stroke="none" stroke-width="1" opacity=".8"><g id="appelb" fill-rule="nonzero" transform="translate(-0.517555, 0.261719)"><circle id="Oval" cx="31" cy="33.25" r="30.43" fill="#263555"/><circle id="Oval" cx="31" cy="30.75" r="30.43" fill="#3C5079"/><rect id="Rectangle-path" width="11.05" height="17.76" x="25.475" y="2.815" fill="#FFF" transform="translate(31.000000, 11.695000) rotate(90.000000) translate(-31.000000, -11.695000)"/><rect id="Rectangle-path" width="9" height="9" x="44.62" y="38.15" fill="#FFF" transform="translate(49.120000, 42.650000) rotate(90.000000) translate(-49.120000, -42.650000)"/><rect id="Rectangle-path" width="9" height="9" x="33.24" y="38.15" fill="#FFF" transform="translate(37.740000, 42.650000) rotate(90.000000) translate(-37.740000, -42.650000)"/><rect id="Rectangle-path" width="9" height="9" x="19.39" y="38.15" fill="#FFF" transform="translate(23.890000, 42.650000) rotate(90.000000) translate(-23.890000, -42.650000)"/><rect id="Rectangle-path" width="9" height="9" x="8.01" y="38.15" fill="#FFF" transform="translate(12.510000, 42.650000) rotate(90.000000) translate(-12.510000, -42.650000)"/><rect id="Rectangle-path" width="1.62" height="8.83" x="11.7" y="30.36" fill="#FFF"/><rect id="Rectangle-path" width="13" height="1.62" x="11.7" y="30.36" fill="#FFF"/><rect id="Rectangle-path" width="1.62" height="8.83" x="23.08" y="30.36" fill="#FFF"/><rect id="Rectangle-path" width="1.62" height="8.83" x="36.93" y="30.36" fill="#FFF"/><rect id="Rectangle-path" width="13" height="1.62" x="36.93" y="30.36" fill="#FFF"/><rect id="Rectangle-path" width="1.62" height="8.83" x="48.31" y="30.36" fill="#FFF"/><rect id="Rectangle-path" width="1.62" height="7.11" x="17.4" y="24.06" fill="#FFF"/><rect id="Rectangle-path" width="1.62" height="8.6" x="30.19" y="15.59" fill="#FFF"/><rect id="Rectangle-path" width="26.87" height="1.62" x="17.4" y="23.38" fill="#FFF"/><rect id="Rectangle-path" width="1.62" height="7.11" x="42.65" y="24.06" fill="#FFF"/></g></g></svg>