<svg xmlns="http://www.w3.org/2000/svg" xmlns:xlink="http://www.w3.org/1999/xlink" width="41" height="49" version="1.1" viewBox="0 0 41 49"><title>sg</title><desc>Created with Sketch.</desc><g id="Asset-Dashboard" fill="none" fill-rule="evenodd" stroke="none" stroke-width="1" opacity=".8"><g id="Asset-Dashboard-AWS-Copy" fill-rule="nonzero" transform="translate(-376.000000, -337.000000)"><g id="sg" transform="translate(376.182927, 336.960099)"><polygon id="Shape" fill="#516A9C" points="26.777 27.924 20.341 27.53 .048 28.832 5.772 41.758"/><polygon id="Shape" fill="#263555" points="5.695 7.296 .048 10.147 .048 24.5 5.695 24.5 13.684 17.258"/><polygon id="Shape" fill="#3C5079" points="26.777 27.924 5.772 29.675 5.772 41.758 26.777 36.039"/><polygon id="Shape" fill="#3C5079" points="15.931 24.5 5.695 24.5 5.695 7.296 15.931 10.069"/><polygon id="Shape" fill="#263555" points="30.643 24.488 37.993 24.5 37.993 10.392 30.643 11.611"/><polygon id="Shape" fill="#1D2126" points="16.254 13.033 22.869 6.394 37.993 15.112 30.643 16.146"/><polygon id="Shape" fill="#263555" points="9.489 24.5 20.293 24.5 25.958 13.17 20.293 0 9.489 5.402"/><polygon id="Shape" fill="#3C5079" points="20.293 0 20.293 24.5 26.364 24.5 26.364 11.623 37.993 15.112 37.993 24.5 40.586 24.5 40.586 10.147"/><polygon id="Shape" fill="#263555" points=".048 28.832 5.772 29.675 5.772 41.758 .048 38.901"/><polygon id="Shape" fill="#516A9C" points="40.586 28.779 30.828 28.175 9.489 30.243 20.293 49"/><polygon id="Shape" fill="#3C5079" points="40.586 28.779 20.293 31.82 20.293 49 40.586 38.853"/><polygon id="Shape" fill="#263555" points="9.489 30.243 20.293 31.82 20.293 49 9.489 43.61"/></g></g></g></svg>