<svg xmlns="http://www.w3.org/2000/svg" xmlns:xlink="http://www.w3.org/1999/xlink" width="41" height="50" version="1.1" viewBox="0 0 41 50"><title>EFS</title><desc>Created with Sketch.</desc><g id="Asset-Dashboard" fill="none" fill-rule="evenodd" stroke="none" stroke-width="1" opacity=".8"><g id="Asset-Dashboard-AWS-Copy" fill-rule="nonzero" transform="translate(-505.000000, -210.000000)"><g id="EFS" transform="translate(504.585366, 210.692308)"><polygon id="Shape" fill="#263555" points="5.474 17.795 10.063 16.875 15.525 22.164 10.063 26.329 5.474 26.107"/><polygon id="Shape" fill="#516A9C" points="25.39 28.82 35.591 41.668 41.268 28.79 31.742 28.205"/><polygon id="Shape" fill="#516A9C" points="16.439 28.82 6.239 41.668 .562 28.79 10.087 28.205"/><polygon id="Shape" fill="#3C5079" points="41.268 28.79 35.591 29.633 35.591 41.668 41.268 38.83"/><polygon id="Shape" fill="#3C5079" points="17.222 17.819 10.063 16.875 10.063 26.329 17.222 26.113"/><polygon id="Shape" fill="#263555" points="24.536 17.819 31.695 16.863 35.591 21.936 31.695 26.335 24.536 26.113"/><polygon id="Shape" fill="#3C5079" points="36.284 17.783 31.695 16.863 31.695 26.335 36.284 26.113"/><polygon id="Shape" fill="#263555" points="13.571 16.17 20.915 14.7 26.305 21.596 20.915 26.854 13.571 26.496"/><polygon id="Shape" fill="#1D2126" points="26.95 11.623 20.879 13.039 14.808 11.623 20.915 0"/><polygon id="Shape" fill="#263555" points="25.39 28.82 35.591 29.633 35.591 41.668 25.39 38.919"/><polygon id="Shape" fill="#263555" points=".562 28.79 6.239 29.633 6.239 41.668 .562 38.83"/><polygon id="Shape" fill="#3C5079" points="16.439 28.82 6.239 29.633 6.239 41.668 16.439 38.919"/><polygon id="Shape" fill="#516A9C" points="31.695 30.213 20.915 29.191 10.135 30.213 20.915 49"/><polygon id="Shape" fill="#3C5079" points="31.695 30.213 20.915 31.82 20.915 49 31.695 43.616"/><polygon id="Shape" fill="#263555" points="10.135 30.213 20.915 31.82 20.915 49 10.135 43.616"/><polygon id="Shape" fill="#3C5079" points="28.187 16.164 20.915 14.7 20.915 26.854 28.187 26.502"/><polygon id="Shape" fill="#3C5079" points="26.95 3.036 20.915 0 20.915 9.8 26.95 11.623"/><polygon id="Shape" fill="#263555" points="14.808 3.036 20.915 0 20.915 9.8 14.808 11.623"/></g></g></g></svg>