<svg xmlns="http://www.w3.org/2000/svg" xmlns:xlink="http://www.w3.org/1999/xlink" width="1205" height="700" version="1.1" viewBox="0 0 1205 700"><title>BG_icons_text</title><desc>Created with Sketch.</desc><defs><radialGradient id="radialGradient-1" cx="49.353%" cy="50%" r="120.861%" fx="49.353%" fy="50%" gradientTransform="translate(0.493526,0.500000),scale(0.580913,1.000000),rotate(27.079817),translate(-0.493526,-0.500000)"><stop offset="0%" stop-color="#FFF"/><stop offset="100%" stop-color="#3F4A59"/></radialGradient></defs><g id="OmniSearch" fill="none" fill-rule="evenodd" stroke="none" stroke-width="1"><g id="OmniSearch-1" transform="translate(-38.000000, -75.000000)"><g id="BG_icons_text" transform="translate(38.000000, 75.000000)"><g id="BG" fill="url(#radialGradient-1)"><rect id="Rectangle-13" width="1205" height="700" x="0" y="0"/></g><g id="Group-10" opacity=".8" transform="translate(138.000000, 90.000000)"><g id="Group-12"><path id="assets" fill="#3F4A59" fill-rule="nonzero" d="M184.5,30 L190.5,30 L190.5,24 L184.5,24 L184.5,30 Z M193.5,48 L199.5,48 L199.5,42 L193.5,42 L193.5,48 Z M184.5,48 L190.5,48 L190.5,42 L184.5,42 L184.5,48 Z M184.5,39 L190.5,39 L190.5,33 L184.5,33 L184.5,39 Z M193.5,39 L199.5,39 L199.5,33 L193.5,33 L193.5,39 Z M202.5,24 L202.5,30 L208.5,30 L208.5,24 L202.5,24 Z M193.5,30 L199.5,30 L199.5,24 L193.5,24 L193.5,30 Z M202.5,39 L208.5,39 L208.5,33 L202.5,33 L202.5,39 Z M202.5,48 L208.5,48 L208.5,42 L202.5,42 L202.5,48 Z" opacity=".7"/><path id="certificates" fill="#3F4A59" fill-rule="nonzero" d="M598.889474,95.9098307 C597.417263,95.9098307 596.236842,97.0340413 596.236842,98.4361465 L596.236842,111.067725 C596.236842,112.462971 597.424466,113.594041 598.889474,113.594041 L609.5,113.594041 L609.5,119.909831 L613.478947,116.120357 L617.457895,119.909831 L617.457895,113.594041 L620.110526,113.594041 C621.575534,113.594041 622.763158,112.462971 622.763158,111.067725 L622.763158,102.22562 L622.763158,99.6993044 L622.763158,98.4361465 C622.763158,97.0409008 621.575534,95.9098307 620.110526,95.9098307 L614.805263,95.9098307 L598.889474,95.9098307 Z M609.5,98.4361465 L613.478947,100.962462 L617.457895,98.4361465 L617.457895,102.857199 L621.436842,104.751936 L617.457895,106.646673 L617.457895,111.067725 L613.478947,108.54141 L609.5,111.067725 L609.5,106.646673 L605.521053,104.751936 L609.5,102.857199 L609.5,98.4361465 Z M598.889474,98.4361465 L605.521053,98.4361465 L605.521053,100.962462 L598.889474,100.962462 L598.889474,98.4361465 Z M598.889474,103.488778 L602.868421,103.488778 L602.868421,106.015094 L598.889474,106.015094 L598.889474,103.488778 Z M598.889474,108.54141 L605.521053,108.54141 L605.521053,111.067725 L598.889474,111.067725 L598.889474,108.54141 Z" opacity=".7"/><path id="vulnerabilities" fill="#3F4A59" d="M506.080548,28.944 L506.080548,20.9218874 L498.925533,20.9218874 L498.925533,15.1684512 L496.094714,15.1684512 C495.721305,13.7059219 495.026642,12.3418902 494.012828,11.1316603 L496.683008,8.60866606 C499.031913,9.66913102 501.862731,8.70919225 502.985168,6.43848729 C504.107498,4.21905968 503.091559,1.54428205 500.688386,0.483716176 C498.285213,-0.576849703 495.508663,0.383189992 494.386226,2.65389494 C493.797932,3.86412484 493.797932,5.27740532 494.386226,6.43838637 L491.716045,8.96138066 C487.710775,6.18608695 482.209669,6.18608695 478.204399,8.96138066 L475.534218,6.38711913 C476.656548,4.16769152 475.640609,1.49291389 473.291694,0.432348012 C470.942789,-0.628116947 468.111971,0.331821828 466.989534,2.55125954 C465.867204,4.77068715 466.883143,7.44546477 469.232058,8.50603065 C470.51289,9.06189676 472.008619,9.06189676 473.291587,8.50603065 L475.961767,11.0290249 C475.000075,12.2392548 474.253279,13.6032865 473.879881,15.0658158 L470.996941,15.0658158 L470.996941,20.8172336 L464,20.8211745 L464,28.8947562 L467.204216,28.8947562 L467.204216,23.9000349 L471.048849,23.9000349 L471.048849,31.1163032 L464.907434,31.1143352 L464.907434,39.1879169 L468.111651,39.1879169 L468.111651,34.1419284 L471.048849,34.1419284 C471.315867,36.4638905 472.277559,38.6320508 473.825409,40.4494141 L470.833953,40.4494141 L470.833953,46 L474.038169,46 L474.038169,43.4770057 L477.882802,43.4770057 C479.59129,44.2851712 481.514675,44.7385029 483.435709,44.7385029 L486.479288,44.7385029 C488.402672,44.7385029 490.32392,44.3344302 492.032195,43.4770057 L496.037465,43.4770057 L496.037465,46 L499.241682,46 L499.241682,40.4494141 L496.037465,40.4494141 C497.639574,38.6320508 498.601266,36.4638905 498.868284,34.1419284 L501.96612,34.1419284 L501.96612,39.1879169 L505.170337,39.1879169 L505.170337,31.1143352 L498.924785,31.1143352 L498.924785,23.949536 L502.930055,23.949536 L502.930055,28.9442574 L506.080548,28.944 Z" opacity=".7"/><path id="violations" fill="#3F4A59" fill-rule="nonzero" d="M277.972603,107.909831 L305.762076,107.909831 L291.86734,83.9098307 L277.972603,107.909831 Z M293.130497,104.120357 L290.604182,104.120357 L290.604182,101.594041 L293.130497,101.594041 L293.130497,104.120357 Z M293.130497,99.0677255 L290.604182,99.0677255 L290.604182,94.0150939 L293.130497,94.0150939 L293.130497,99.0677255 Z" opacity=".7"/><path id="software" fill="#3F4A59" fill-rule="nonzero" d="M734.461119,46.5882353 C733.681423,46.5882353 733.049354,45.9561667 733.049354,45.1764706 C733.049354,44.3967745 733.681423,43.7647059 734.461119,43.7647059 C735.240815,43.7647059 735.872884,44.3967745 735.872884,45.1764706 C735.872884,45.9561667 735.240815,46.5882353 734.461119,46.5882353 Z M723.167001,26.8235294 L745.755237,26.8235294 L745.755237,42.3529412 L723.167001,42.3529412 L723.167001,26.8235294 Z M745.755237,45.1764706 C747.314629,45.1764706 748.578766,43.9123334 748.578766,42.3529412 L748.578766,26.8235294 C748.578766,25.2564706 747.308178,24 745.755237,24 L723.167001,24 C721.599942,24 720.343472,25.2564706 720.343472,26.8235294 L720.343472,42.3529412 C720.343472,43.9123334 721.607609,45.1764706 723.167001,45.1764706 L717.519942,45.1764706 C717.519942,46.7358628 718.78408,48 720.343472,48 L748.578766,48 C750.138158,48 751.402295,46.7358628 751.402295,45.1764706 L745.755237,45.1764706 Z" opacity=".7"/><circle id="Oval" cx="349" cy="37" r="5" stroke="#3F4A59" stroke-width="2" opacity=".7"/><path id="Oval2" fill="#3F4A59" fill-rule="nonzero" d="M609,473 C605.686292,473 603,470.313708 603,467 C603,463.686292 605.686292,461 609,461 C612.313708,461 615,463.686292 615,467 C615,470.313708 612.313708,473 609,473 Z M609,471 C611.209139,471 613,469.209139 613,467 C613,464.790861 611.209139,463 609,463 C606.790861,463 605,464.790861 605,467 C605,469.209139 606.790861,471 609,471 Z"/><circle id="Oval" cx="517.753" cy="87.16" r="3.5" stroke="#3F4A59" stroke-width="2" opacity=".7"/><path id="Oval" fill="#3F4A59" fill-rule="nonzero" d="M787.5,300 C785.014719,300 783,297.985281 783,295.5 C783,293.014719 785.014719,291 787.5,291 C789.985281,291 792,293.014719 792,295.5 C792,297.985281 789.985281,300 787.5,300 Z M787.5,298 C788.880712,298 790,296.880712 790,295.5 C790,294.119288 788.880712,293 787.5,293 C786.119288,293 785,294.119288 785,295.5 C785,296.880712 786.119288,298 787.5,298 Z"/><path id="Line" stroke="#727B85" stroke-linecap="round" stroke-width="2" d="M115.062258,122.179688 L115.062258,133.179688"/><path id="Line" stroke="#727B85" stroke-linecap="round" stroke-width="2" d="M120.562258,127.679688 L109.562258,127.679688"/><g id="Plus" fill="#727B85" fill-rule="nonzero" transform="translate(528.000000, 390.000000)"><path id="Line" d="M4.42620541,1.08161058 C4.42620541,0.529325827 4.87392066,0.0816105769 5.42620541,0.0816105769 C5.97849016,0.0816105769 6.42620541,0.529325827 6.42620541,1.08161058 L6.42620541,9.54314904 C6.42620541,10.0954338 5.97849016,10.543149 5.42620541,10.543149 C4.87392066,10.543149 4.42620541,10.0954338 4.42620541,9.54314904 L4.42620541,1.08161058 Z"/><path id="Line" d="M9.65697464,4.31237981 C10.2092594,4.31237981 10.6569746,4.76009506 10.6569746,5.31237981 C10.6569746,5.86466456 10.2092594,6.31237981 9.65697464,6.31237981 L1.19543618,6.31237981 C0.643151433,6.31237981 0.195436183,5.86466456 0.195436183,5.31237981 C0.195436183,4.76009506 0.643151433,4.31237981 1.19543618,4.31237981 L9.65697464,4.31237981 Z"/></g><g id="RDS" fill-rule="nonzero" transform="translate(306.000000, 512.000000)"><polygon id="Shape" fill="#737982" points="8.397 17.138 18.299 19.495 19.545 18.87 19.545 5.066 18.299 4.441 8.397 6.763"/><polygon id="Shape" fill="#737982" points="8.397 4.885 8.397 19.071 14.978 21.155 16.802 20.242 16.802 3.694 14.978 2.781"/><polygon id="Shape" fill="#DCE0E4" points="16.802 20.242 14.978 21.155 14.978 2.781 16.802 3.694"/><polygon id="Shape" fill="#DCE0E4" points="19.545 18.87 18.299 19.495 18.299 4.441 19.545 5.066"/><path id="Shape" fill="#737982" d="M9.78219863,0.18431517 L0.0197367092,5.06554613 L0.0197367092,18.8732745 L9.78219863,23.7516426 L12.7023485,22.2915676 L12.7023485,1.64439012 L9.78219863,0.18431517 Z M6.86204873,16.7890891 L3.95907618,16.1048579 L3.95907618,7.83109986 L6.86204873,7.15545733 L6.86204873,16.7890891 Z"/><polygon id="Shape" fill="#CBD2D8" points="1.268 16.486 6.859 18.163 6.862 16.781 3.959 16.105"/><polygon id="Shape" fill="#DCE0E4" points="3.959 16.105 1.268 16.486 1.268 7.453 3.959 7.831"/><polygon id="Shape" fill="#5A5E6C" points="6.862 7.155 3.959 7.831 1.268 7.453 6.862 5.773"/><polygon id="Shape" fill="#DCE0E4" points="12.702 22.292 9.782 23.752 9.782 .184 12.702 1.644"/></g><g id="API-Gateway" fill-rule="nonzero" transform="translate(832.000000, 451.000000)"><polygon id="Shape" fill="#CBD2D8" points="26.156 18.467 19.848 18.208 15.76 18.467 22.507 27.64"/><polygon id="Shape" fill="#5A5E6C" points="26.156 14.668 19.848 14.928 15.76 14.668 22.507 5.495"/><polygon id="Shape" fill="#5A5E6C" points=".175 14.657 6.484 14.928 10.572 14.668 3.825 5.541"/><polygon id="Shape" fill="#CBD2D8" points=".175 18.467 6.484 18.208 10.572 18.467 3.825 27.648"/><polygon id="Shape" fill="#DCE0E4" points="22.507 14.303 26.156 14.668 26.156 7.32 22.507 5.495"/><polygon id="Shape" fill="#737982" points="15.76 7.316 22.507 5.495 22.507 14.303 15.76 14.668"/><polygon id="Shape" fill="#DCE0E4" points="13.166 6.249 20.473 8.638 20.473 12.272 13.166 10.985"/><polygon id="Shape" fill="#5A5E6C" points="9.875 11.583 13.219 10.992 20.473 12.272 17.231 12.627"/><polygon id="Shape" fill="#737982" points="3.825 14.303 .175 14.657 .175 7.286 3.825 5.488"/><polygon id="Shape" fill="#DCE0E4" points="10.572 7.316 3.825 5.488 3.825 14.303 10.572 14.668"/><polygon id="Shape" fill="#737982" points="13.166 6.249 5.859 8.638 5.859 12.272 13.166 10.985"/><polygon id="Shape" fill="#5A5E6C" points="16.457 11.583 13.113 10.992 5.859 12.272 9.101 12.627"/><polygon id="Shape" fill="#DCE0E4" points="22.507 18.832 26.156 18.467 26.156 25.815 22.507 27.64"/><polygon id="Shape" fill="#737982" points="15.76 25.819 22.507 27.64 22.507 18.832 15.76 18.467"/><polygon id="Shape" fill="#DCE0E4" points="13.166 26.886 20.473 24.497 20.473 20.863 13.166 22.15"/><polygon id="Shape" fill="#CBD2D8" points="9.875 21.552 13.219 22.139 20.473 20.863 17.231 20.508"/><polygon id="Shape" fill="#737982" points="3.825 18.832 .175 18.467 .175 25.815 3.825 27.648"/><polygon id="Shape" fill="#DCE0E4" points="10.572 25.819 3.825 27.648 3.825 18.832 10.572 18.467"/><polygon id="Shape" fill="#737982" points="13.166 26.886 5.859 24.497 5.859 20.863 13.166 22.15"/><polygon id="Shape" fill="#CBD2D8" points="16.457 21.552 13.113 22.139 5.859 20.863 9.101 20.508"/><polygon id="Shape" fill="#737982" points="9.28 30.242 13.166 32.185 15.322 31.107 17.052 2.768 13.166 .825 9.28 2.768"/><polygon id="Shape" fill="#DCE0E4" points="17.052 30.242 13.166 32.185 13.166 .825 17.052 2.768"/></g><g id="lambda" fill-rule="nonzero" transform="translate(396.000000, 363.000000)"><polygon id="Shape" fill="#737982" points=".079 24.119 1.629 24.894 4.369 15.519 1.629 6.115 .079 6.89"/><polygon id="Shape" fill="#DCE0E4" points="4.629 6.83 1.629 6.126 1.629 24.894 4.629 24.19"/><polygon id="Shape" fill="#737982" points="3.494 5.183 5.769 4.044 8.608 15.519 5.769 26.965 3.494 25.826"/><polygon id="Shape" fill="#DCE0E4" points="10.429 25.437 5.769 26.923 5.769 4.044 10.429 5.533"/><polygon id="Shape" fill="#737982" points="21.012 8.065 22.876 8.065 22.876 22.333 21.012 22.23"/><polygon id="Shape" fill="#5A5E6C" points="13.779 8.273 15.872 7.194 22.729 8.065 22.933 9.89 21.054 10.155"/><polygon id="Shape" fill="#CBD2D8" points="13.84 22.737 15.929 23.815 22.99 21.115 21.115 20.855"/><polygon id="Shape" fill="#737982" points="14.369 19.708 18.101 20.208 18.101 10.801 14.369 11.298"/><polygon id="Shape" fill="#737982" points="8.608 28.383 12.251 30.205 15.379 15.483 12.251 .805 8.608 2.626"/><path id="Shape" fill="#DCE0E4" d="M12.254416,0.8046875 L12.254416,30.2046875 L24.4329874,24.1154018 L24.4329874,6.89397321 L12.254416,0.8046875 Z M22.8758446,21.1368304 L15.8937017,23.2332589 L15.8937017,7.77611607 L22.8722731,9.86897321 L22.8758446,21.1368304 Z"/><polygon id="Shape" fill="#DCE0E4" points="18.101 10.801 18.101 20.237 21.983 15.519"/></g><g id="ELB" fill-rule="nonzero" transform="translate(691.000000, 363.000000)"><polygon id="Shape" fill="#737982" points="1.43 6.665 .127 7.316 .127 25.693 1.43 26.345 6.592 16.505"/><polygon id="Shape" fill="#DCE0E4" points="4.466 25.632 1.43 26.345 1.43 6.665 4.466 7.358"/><polygon id="Shape" fill="#737982" points="2.866 5.945 4.466 5.148 8.253 16.505 4.466 27.861 2.866 27.065"/><polygon id="Shape" fill="#DCE0E4" points="8.253 26.79 4.466 27.861 4.466 5.148 8.253 6.223"/><polygon id="Shape" fill="#737982" points="6.249 4.253 8.253 3.251 20.763 16.505 8.253 29.754 6.249 28.756"/><polygon id="Shape" fill="#DCE0E4" points="21.78 24.748 8.253 29.754 8.253 3.251 21.78 8.196"/><polygon id="Shape" fill="#5A5E6C" points="20.028 14.032 17.502 14.196 10.519 13.606 13.11 .825"/><polygon id="Shape" fill="#737982" points="13.11 13.343 13.11 .825 10.519 2.12 10.519 13.606"/><polygon id="Shape" fill="#DCE0E4" points="20.028 14.032 20.028 4.284 13.11 .825 13.11 13.343"/><polygon id="Shape" fill="#CBD2D8" points="20.028 18.893 17.635 18.741 10.519 19.343 13.11 32.185"/><polygon id="Shape" fill="#737982" points="10.519 19.343 10.519 30.893 13.11 32.185 13.11 19.579"/><polygon id="Shape" fill="#DCE0E4" points="13.11 19.579 13.11 32.185 20.028 28.726 20.028 18.893"/><polygon id="Shape" fill="#CBD2D8" points="26.1 18.291 24.615 18.23 20.763 18.569 22.394 27.545"/><polygon id="Shape" fill="#DCE0E4" points="22.394 18.657 22.394 27.545 26.1 25.689 26.1 18.291"/><polygon id="Shape" fill="#5A5E6C" points="26.1 14.642 24.615 14.703 20.763 14.36 22.394 5.465"/><polygon id="Shape" fill="#DCE0E4" points="26.1 14.642 26.1 7.32 22.394 5.465 22.394 14.268"/><polygon id="Shape" fill="#737982" points="20.763 27.114 22.394 27.545 22.394 18.657 20.763 18.569"/><polygon id="Shape" fill="#737982" points="20.763 5.895 22.394 5.465 22.394 14.268 20.763 14.36"/></g><g id="NetworkingContentDelivery/AmazonVPC/AmazonVPC" fill-rule="nonzero" transform="translate(0.743902, 276.500000)"><g id="Group"><g id="VPC"><polygon id="Shape" fill="#CBD2D8" points="20.766 21.655 15.775 21.35 .037 22.36 4.477 32.383"/><polygon id="Shape" fill="#737982" points="4.416 5.658 .037 7.869 .037 19 4.416 19 10.612 13.383"/><polygon id="Shape" fill="#DCE0E4" points="20.766 21.655 4.477 23.013 4.477 32.383 20.766 27.949"/><polygon id="Shape" fill="#DCE0E4" points="12.355 19 4.416 19 4.416 5.658 12.355 7.809"/><polygon id="Shape" fill="#737982" points="23.764 18.991 29.464 19 29.464 8.059 23.764 9.004"/><polygon id="Shape" fill="#5A5E6C" points="12.605 10.107 17.735 4.959 29.464 11.72 23.764 12.521"/><polygon id="Shape" fill="#737982" points="7.359 19 15.738 19 20.131 10.214 15.738 0 7.359 4.189"/><polygon id="Shape" fill="#DCE0E4" points="15.738 0 15.738 19 20.446 19 20.446 9.013 29.464 11.72 29.464 19 31.475 19 31.475 7.869"/><polygon id="Shape" fill="#737982" points=".037 22.36 4.477 23.013 4.477 32.383 .037 30.168"/><polygon id="Shape" fill="#CBD2D8" points="31.475 22.318 23.908 21.85 7.359 23.453 15.738 38"/><polygon id="Shape" fill="#DCE0E4" points="31.475 22.318 15.738 24.677 15.738 38 31.475 30.131"/><polygon id="Shape" fill="#737982" points="7.359 23.453 15.738 24.677 15.738 38 7.359 33.82"/></g></g></g><g id="AWS" fill-rule="nonzero" transform="translate(489.000000, 454.000000)"><polygon id="Shape" fill="#DCE0E4" points="21.238 27.819 4.944 32.323 4.944 5.654 21.238 10.061"/><polygon id="Shape" fill="#737982" points="4.944 32.323 .532 30.108 .532 7.86 4.944 5.654"/><polygon id="Shape" fill="#737982" points="7.882 15.265 16.251 14.208 16.251 23.718 7.882 22.67"/><polygon id="Shape" fill="#5A5E6C" points="31.98 13.439 24.347 14.227 7.882 11.609 16.251 0"/><polygon id="Shape" fill="#737982" points="7.882 4.185 16.251 0 16.251 9.523 7.882 11.609"/><polygon id="Shape" fill="#CBD2D8" points="31.98 24.547 24.347 23.755 7.882 26.387 16.251 37.893"/><polygon id="Shape" fill="#737982" points="7.882 33.797 16.251 38 16.251 28.477 7.882 26.387"/><polygon id="Shape" fill="#DCE0E4" points="31.98 13.439 16.251 9.523 16.251 0 31.98 7.864"/><polygon id="Shape" fill="#DCE0E4" points="31.98 21.757 16.251 23.718 16.251 14.194 31.98 16.178"/><polygon id="Shape" fill="#DCE0E4" points="31.98 30.122 16.251 38 16.251 28.477 31.98 24.547"/></g><g id="Group-7" fill="#3C5079" font-family="Exo-MediumItalic, Exo" font-size="12" font-style="italic" font-weight="500" transform="translate(4.000000, 51.000000)"><text id="lambda"><tspan x="380.859" y="361.517">lambda</tspan></text><text id="software"><tspan x="704" y="12.21">software</tspan></text><text id="certificates"><tspan x="579" y="86.64">certificates</tspan></text><text id="vulnerabilities"><tspan x="445.763" y="12.21">vulnerabilities</tspan></text><text id="S3"><tspan x="220.133" y="361.517">S3</tspan></text><text id="EC2"><tspan x="63.188" y="466.991">EC2</tspan></text><text id="VPC"><tspan x=".5" y="283.538">VPC</tspan></text><text id="AWS-code-deploy"><tspan x="456.431" y="462.709">AWS code deploy</tspan></text><text id="RDS"><tspan x="298" y="504.44">RDS</tspan></text><text id="assets"><tspan x="174" y="13.21">assets</tspan></text><text id="violations"><tspan x="261.5" y="73.64">violations</tspan></text><text id="ELB"><tspan x="690" y="361.517">ELB</tspan></text><text id="API-Gateway"><tspan x="806" y="446.709">API Gateway</tspan></text></g><g id="EC2" fill-rule="nonzero" transform="translate(56.187500, 446.488415)"><g id="Group"><polygon id="Shape" fill="#737982" points="2.732 10.203 .574 11.281 .574 41.719 2.732 42.797 11.464 27.289"/><polygon id="Shape" fill="#DCE0E4" points="7.761 41.618 2.732 42.797 2.732 10.203 7.761 11.351"/><polygon id="Shape" fill="#737982" points="5.111 9.01 7.761 7.691 20.348 27.869 7.761 45.309 5.111 43.99"/><polygon id="Shape" fill="#DCE0E4" points="14.032 43.536 7.761 45.309 7.761 7.691 14.032 9.471"/><polygon id="Shape" fill="#737982" points="10.714 6.209 14.032 4.549 32.601 30.078 14.032 48.451 10.714 46.791"/><polygon id="Shape" fill="#DCE0E4" points="22.077 45.511 14.032 48.451 14.032 4.549 22.077 7.496"/><polygon id="Shape" fill="#737982" points="17.787 2.675 22.077 .53 42.167 27.97 22.077 52.47 17.787 50.325"/><polygon id="Shape" fill="#DCE0E4" points="43.593 41.712 22.077 52.47 22.077 .53 43.593 11.288"/></g></g><g id="S3" fill-rule="nonzero" transform="translate(214.134146, 349.504687)"><g id="Group" transform="translate(0.457031, 0.897949)"><polygon id="Shape" fill="#8B9097" points="2.905 7.462 .042 8.894 .042 34.049 2.905 35.48 9.932 21.469"/><polygon id="Shape" fill="#DFE3E6" points="17.829 31.862 2.905 35.475 2.905 7.462 17.829 11.075 24.882 21.51"/><polygon id="Shape" fill="#8B9097" points="17.829 31.862 32.748 35.475 35.328 21.825 32.748 7.462 17.829 11.075"/><polygon id="Shape" fill="#DFE3E6" points="32.748 7.462 35.617 8.894 35.617 34.049 32.748 35.48"/><polygon id="Shape" fill="#8B9097" points="11.322 26.104 17.829 26.938 22.989 21.51 17.829 16.088 11.322 16.906"/><polygon id="Shape" fill="#767B86" points="24.337 12.454 17.829 13.639 11.322 12.454 17.829 0"/><polygon id="Shape" fill="#D2D7DC" points="24.337 30.546 17.829 29.35 11.322 30.546 17.829 43"/><polygon id="Shape" fill="#DFE3E6" points="24.337 12.454 17.829 10.844 17.829 0 24.337 3.251"/><polygon id="Shape" fill="#8B9097" points="11.322 12.454 17.829 10.844 17.829 0 11.322 3.251"/><polygon id="Shape" fill="#DFE3E6" points="17.829 43 24.337 39.749 24.337 30.546 17.829 32.156"/><polygon id="Shape" fill="#8B9097" points="17.829 43 11.322 39.749 11.322 30.546 17.829 32.156"/><polygon id="Shape" fill="#DFE3E6" points="24.337 26.104 17.829 26.938 17.829 16.088 24.337 16.906"/></g></g></g></g></g></g></g></svg>