<svg xmlns="http://www.w3.org/2000/svg" xmlns:xlink="http://www.w3.org/1999/xlink" width="24" height="24" version="1.1" viewBox="0 0 24 24"><title>ic/storage/grey600</title><desc>Created with Sketch.</desc><g id="Symbols" fill="none" fill-rule="evenodd" stroke="none" stroke-width="1"><g id="ic/storage/grey600"><g id="ic_storage_24px"><polygon id="Shape" points="0 0 24 0 24 24 0 24"/><path id="Shape" fill="#FFF" fill-rule="nonzero" d="M2,20 L22,20 L22,16 L2,16 L2,20 Z M4,17 L6,17 L6,19 L4,19 L4,17 Z M2,4 L2,8 L22,8 L22,4 L2,4 Z M6,7 L4,7 L4,5 L6,5 L6,7 Z M2,14 L22,14 L22,10 L2,10 L2,14 Z M4,11 L6,11 L6,13 L4,13 L4,11 Z"/></g></g></g></svg>