<svg xmlns="http://www.w3.org/2000/svg" xmlns:xlink="http://www.w3.org/1999/xlink" width="15" height="20" version="1.1" viewBox="0 0 15 20"><title>Auto Fix Enabled</title><desc>Created with Sketch.</desc><g id="Current" fill="none" fill-rule="evenodd" stroke="none" stroke-width="1"><g id="Policies-w-Auto-Fix-Enabled" fill="#50C17C" transform="translate(-853.000000, -608.000000)"><g id="Group-2" transform="translate(66.000000, 172.000000)"><g id="Security-Copy-4-+-Security-Copy-5-Mask" transform="translate(0.000000, 103.000000)"><g id="Group" transform="translate(35.000000, 71.000000)"><g id="Security-Copy-4" transform="translate(728.000000, 160.000000)"><g id="Group-8" transform="translate(24.000000, 102.000000)"><g id="Group-2" transform="translate(0.000000, 0.142857)"><path id="Auto-Fix-Enabled" d="M10.976431,14.5454545 L8.12072558,19.1145832 C8.04024487,19.2433523 7.93149534,19.3521018 7.80272621,19.4325825 C7.33438968,19.7252929 6.7174393,19.5829197 6.42472897,19.1145832 L3.56902357,14.5454545 L1,14.5454545 C0.44771525,14.5454545 -2.45069608e-13,14.0977393 -2.45137244e-13,13.5454545 L-2.45137244e-13,1 C-2.45204879e-13,0.44771525 0.44771525,-3.42735417e-13 1,-3.4283687e-13 L13.5454545,-3.4283687e-13 C14.0977393,-3.43919378e-13 14.5454545,0.44771525 14.5454545,1 L14.5454545,13.5454545 C14.5454545,14.0977393 14.0977393,14.5454545 13.5454545,14.5454545 L10.976431,14.5454545 Z M5.45454545,9.8 L2.92727273,7.27272727 L2.06666667,8.12727273 L5.45454545,11.5151515 L12.7272727,4.24242424 L11.8727273,3.38787879 L5.45454545,9.8 Z"/></g></g></g></g></g></g></g></g></svg>