<svg xmlns="http://www.w3.org/2000/svg" xmlns:xlink="http://www.w3.org/1999/xlink" width="72" height="42" version="1.1" viewBox="0 0 72 42"><title>Patching</title><desc>Created with Sketch.</desc><defs><path id="path-1" d="M58.8806089,23.8971058 C59.2783512,23.0599223 59.4753619,22.0104922 59.4753619,20.9610319 C59.4753619,16.3506513 55.9068442,12.5774241 51.5465913,12.5774241 C49.7623325,12.5774241 48.3758444,13.2062953 46.9855499,14.0434486 C45.0043088,5.86812299 38.0642556,0 29.7377143,0 C19.8238962,0 11.8951257,8.38360781 11.8951257,18.8661361 C11.8951257,19.7033197 11.8951257,20.5444676 12.0921364,21.1733388 C11.3003727,20.9650265 10.7056483,20.9650265 9.91381802,20.9650265 C4.36405927,20.9650265 0,25.5754071 0,31.4475548 C0,37.3156778 4.36025285,41.9300832 9.91381802,41.9300832 L62.44906,41.9300832 C67.4040658,41.9300832 71.3703543,37.7362669 71.3703543,32.4970151 C71.3703543,27.2538392 67.4040658,23.0600229 62.44906,23.0600229 C61.2596208,23.0599223 60.0701148,23.2682346 58.8806089,23.8971058 Z"/></defs><g id="Prototype" fill="none" fill-rule="evenodd" stroke="none" stroke-width="1"><g id="6-Compliance-Dashboard-(Update-2)" transform="translate(-1137.000000, -679.000000)"><g id="Group-20" transform="translate(963.000000, 75.000000)"><g id="Group-31" transform="translate(140.000000, 556.000000)"><g id="Group-19-Copy" transform="translate(34.196721, 48.000000)"><g id="Patching"><mask id="mask-2" fill="#fff"><use xlink:href="#path-1"/></mask><use id="Mask" fill="#00569D" xlink:href="#path-1"/><polygon id="Path-13" fill="#FFF" points="78.357 -7.091 -13.763 45.283 78.357 45.283" mask="url(#mask-2)" opacity=".1"/></g></g></g></g></g></g></svg>