<svg xmlns="http://www.w3.org/2000/svg" xmlns:xlink="http://www.w3.org/1999/xlink" width="24" height="24" version="1.1" viewBox="0 0 24 24"><title>Warning</title><desc>Created with Sketch.</desc><g id="Current" fill="none" fill-rule="evenodd" stroke="none" stroke-width="1"><g id="Toast-Messages" fill="#F58544" fill-rule="nonzero" transform="translate(-468.000000, -180.000000)"><g id="Group-17-Copy" transform="translate(447.000000, 168.000000)"><g id="Rectangle"><g id="Group-43" transform="translate(21.000000, 12.000000)"><path id="Warning" d="M12,0 C5.376,0 0,5.376 0,12 C0,18.624 5.376,24 12,24 C18.624,24 24,18.624 24,12 C24,5.376 18.624,0 12,0 Z M13.2,18 L10.8,18 L10.8,10.8 L13.2,10.8 L13.2,18 Z M13.2,8.4 L10.8,8.4 L10.8,6 L13.2,6 L13.2,8.4 Z" transform="translate(12.000000, 12.000000) scale(1, -1) translate(-12.000000, -12.000000)"/></g></g></g></g></g></svg>